<?xml version="1.0" encoding="UTF-8" standalone="no"?>
<!-- Created with Inkscape (http://www.inkscape.org/) -->

<svg
   xmlns:dc="http://purl.org/dc/elements/1.1/"
   xmlns:cc="http://creativecommons.org/ns#"
   xmlns:rdf="http://www.w3.org/1999/02/22-rdf-syntax-ns#"
   xmlns:svg="http://www.w3.org/2000/svg"
   xmlns="http://www.w3.org/2000/svg"
   xmlns:sodipodi="http://sodipodi.sourceforge.net/DTD/sodipodi-0.dtd"
   xmlns:inkscape="http://www.inkscape.org/namespaces/inkscape"
   sodipodi:docname="input-no-mouse-symbolic.svg"
   height="512"
   id="svg7384"
   inkscape:version="0.92.4 5da689c313, 2019-01-14"
   version="1.1"
   width="512">
  <metadata
     id="metadata90">
    <rdf:RDF>
      <cc:Work
         rdf:about="">
        <dc:format>image/svg+xml</dc:format>
        <dc:type
           rdf:resource="http://purl.org/dc/dcmitype/StillImage" />
        <dc:title>Gnome Symbolic Icon Theme</dc:title>
      </cc:Work>
    </rdf:RDF>
  </metadata>
  <sodipodi:namedview
     inkscape:bbox-paths="false"
     bordercolor="#666666"
     borderopacity="1"
     inkscape:current-layer="layer10"
     inkscape:cx="127.11811"
     inkscape:cy="68.96987"
     gridtolerance="10"
     inkscape:guide-bbox="true"
     guidetolerance="10"
     id="namedview88"
     inkscape:object-nodes="false"
     inkscape:object-paths="false"
     objecttolerance="10"
     pagecolor="#555753"
     inkscape:pageopacity="1"
     inkscape:pageshadow="2"
     showborder="false"
     showgrid="false"
     showguides="true"
     inkscape:snap-bbox="true"
     inkscape:snap-bbox-midpoints="false"
     inkscape:snap-global="true"
     inkscape:snap-grids="true"
     inkscape:snap-nodes="false"
     inkscape:snap-others="false"
     inkscape:snap-to-guides="true"
     inkscape:window-height="2101"
     inkscape:window-maximized="0"
     inkscape:window-width="1916"
     inkscape:window-x="1920"
     inkscape:window-y="0"
     inkscape:zoom="1">
    <inkscape:grid
       empspacing="2"
       enabled="true"
       id="grid4866"
       snapvisiblegridlinesonly="true"
       spacingx="1"
       spacingy="1"
       type="xygrid"
       visible="true"
       originx="0"
       originy="0" />
  </sodipodi:namedview>
  <title
     id="title9167">Gnome Symbolic Icon Theme</title>
  <defs
     id="defs7386" />
  <g
     inkscape:groupmode="layer"
     id="layer9"
     inkscape:label="status"
     style="display:inline"
     transform="translate(-341.0002,49.000002)" />
  <g
     inkscape:groupmode="layer"
     id="layer10"
     inkscape:label="devices"
     transform="translate(-341.0002,49.000002)">
    <path
       inkscape:connector-curvature="0"
       d="m 491.98657,104.61051 c -28.54933,-0.0919 -51.64723,23.45498 -51.78698,52.91399 0.55166,22.81382 0.67733,46.18298 0.45971,69.54021 l 89.53547,0.46892 0.57926,-122.71073 -38.79206,-0.18389 z m 73.77941,0.35858 -0.57926,122.71164 89.53944,0.46893 c 0.45973,-23.44916 0.91946,-46.97923 1.12175,-69.53131 0.0919,-29.45901 -22.73074,-53.29159 -51.2816,-53.43625 l -38.80217,-0.18389 z M 440.52445,260.69161 c -0.34633,25.48758 -1.13399,45.98684 -1.14932,69.44794 -0.27584,61.63625 47.56089,111.50134 107.29625,111.80446 59.73475,0.30649 108.06154,-49.07435 108.35516,-110.71153 -1.08191,-25.63899 -1.40984,-46.2308 -1.14933,-70.54087 z"
       id="rect7357"
       sodipodi:nodetypes="cccccccccccccccccccc"
       style="fill:#bebebe;fill-opacity:1;stroke:none;stroke-width:30.64846992"
       inkscape:transform-center-x="-10.505398"
       inkscape:transform-center-y="-18.867776" />
    <path
       inkscape:connector-curvature="0"
       d="m 595.68225,-17.782096 c -13.9236,1.517102 -27.09233,6.785582 -38.31057,15.3242455 C 542.414,8.9268397 532.46982,26.807169 532.46982,49.261478 c -0.12261,8.096104 7.22751,15.542461 15.32421,15.542461 8.09672,0 15.43885,-7.446357 15.32423,-15.542461 0,-13.764237 5.2605,-21.573165 13.40869,-27.775193 8.1482,-6.202029 20.34322,-9.201596 32.56399,-8.619888 12.22075,0.582322 24.03696,4.722626 32.56398,12.450949 8.52701,7.728323 14.36646,17.914041 14.36646,34.479549 0,66.363175 44.86381,107.548305 91.94535,106.311945 26.25713,-0.68959 51.74225,-14.6181 68.95901,-40.22614 L 799.686,95.234205 c -11.50451,28.064835 -32.72796,39.702375 -52.67704,40.226145 -29.4366,0.77235 -60.33914,-22.36573 -60.33914,-75.663455 0,-24.272683 -10.323,-44.252738 -24.90185,-57.4659184 -14.57886,-13.2131726 -33.13222,-19.2282486 -51.71926,-20.1130726 -4.64692,-0.214538 -9.72538,-0.505698 -14.36646,0 z m 212.6236,60.337683 c -0.01,0.318744 -0.01,0.637489 0,0.956234 0,1.394506 0.0273,2.473332 0,3.83106 l 23.94412,42.141674 c 0.34939,-1.25046 0.63749,-2.55302 0.95623,-3.83106 z m 0,11.493184 c -0.18389,3.248433 -0.61603,6.554486 -0.95622,9.577653 l 22.02858,37.352846 c 0.71717,-1.915535 1.27192,-3.749235 1.91553,-5.746595 z m -1.91551,15.324244 c -0.42295,2.755299 -1.36078,5.105731 -1.91552,7.66212 l 20.11304,34.479555 c 0.898,-1.86649 2.05037,-3.78785 2.87175,-5.74659 z m -2.87175,13.40871 c -0.72637,2.72465 -2.00135,5.17929 -2.87177,7.66213 l 18.19752,31.606255 c 1.22901,-1.99522 2.69707,-3.62265 3.83106,-5.74659 z"
       id="path7413"
       sodipodi:nodetypes="sscscscssccccsscsccccccccccccccccccccc"
       style="color:#000000;font-style:normal;font-variant:normal;font-weight:normal;font-stretch:normal;font-size:medium;line-height:normal;font-family:Sans;-inkscape-font-specification:Sans;text-indent:0;text-align:start;text-decoration:none;text-decoration-line:none;letter-spacing:normal;word-spacing:normal;text-transform:none;writing-mode:lr-tb;direction:ltr;baseline-shift:baseline;text-anchor:start;display:inline;overflow:visible;visibility:visible;fill:#bebebe;fill-opacity:1;stroke:none;stroke-width:30.64846992;marker:none;enable-background:accumulate" />
    <path
       style="fill:#000000;fill-opacity:0;stroke:#bebebe;stroke-width:44.92264175;stroke-linecap:butt;stroke-linejoin:miter;stroke-miterlimit:4;stroke-dasharray:none;stroke-opacity:1"
       d="M 763.71525,449.13305 383.6699,-35.13305"
       id="path62"
       inkscape:connector-curvature="0" />
  </g>
  <g
     inkscape:groupmode="layer"
     id="layer11"
     inkscape:label="apps"
     transform="translate(-341.0002,49.000002)" />
  <g
     inkscape:groupmode="layer"
     id="layer13"
     inkscape:label="places"
     transform="translate(-341.0002,49.000002)" />
  <g
     inkscape:groupmode="layer"
     id="layer14"
     inkscape:label="mimetypes"
     transform="translate(-341.0002,49.000002)" />
  <g
     inkscape:groupmode="layer"
     id="layer15"
     inkscape:label="emblems"
     style="display:inline"
     transform="translate(-341.0002,49.000002)" />
  <g
     inkscape:groupmode="layer"
     id="g71291"
     inkscape:label="emotes"
     style="display:inline"
     transform="translate(-341.0002,49.000002)" />
  <g
     inkscape:groupmode="layer"
     id="g4953"
     inkscape:label="categories"
     style="display:inline"
     transform="translate(-341.0002,49.000002)" />
  <g
     inkscape:groupmode="layer"
     id="layer12"
     inkscape:label="actions"
     style="display:inline"
     transform="translate(-341.0002,49.000002)" />
</svg>
